<svg xmlns="http://www.w3.org/2000/svg" fill="currentColor" viewBox="0 0 24 24" aria-hidden="true">
  <path fill-rule="evenodd" clip-rule="evenodd" d="M12 .297a12 12 0 00-3.794
  23.407c.6.113.82-.26.82-.577v-2.234c-3.338.726-4.033-1.415-4.033
  -1.415-.546-1.387-1.333-1.757-1.333-1.757-1.089-.745.083-.73.083
  -.73 1.205.085 1.84 1.237 1.84 1.237 1.07 1.835 2.809 1.305 3.495
  .997.108-.775.418-1.305.76-1.605-2.665-.303-5.466-1.332-5.466
  -5.93 0-1.31.467-2.382 1.236-3.22-.124-.303-.536-1.527.117
  -3.176 0 0 1.008-.322 3.301 1.23a11.51 11.51 0 013.003-.403c1.019
  0 2.045.138 3.003.403 2.291-1.552 3.297-1.23 3.297
  -1.23.655 1.65.243 2.873.12 3.176.77.838 1.235 1.91
  1.235 3.22 0 4.61-2.803 5.625-5.475
  5.921.43.371.814 1.103.814 2.222v3.293c0 .319.218.694.825
  .576A12 12 0 0012 .297z"/>
</svg>
