<svg xmlns="http://www.w3.org/2000/svg" width="24" height="24" fill="currentColor" viewBox="0 0 24 24">
  <path d="M17.472 14.382c-.297-.149-1.758-.867-2.031-.967-.273-.099-.471-.148-.67.15-.197.297-.768.966-.941 1.164-.173.199-.347.223-.644.074-.297-.149-1.255-.463-2.39-1.475-.883-.788-1.48-1.761-1.653-2.059-.173-.297-.018-.458.13-.606.134-.133.297-.347.446-.52.149-.173.198-.297.298-.495.099-.198.05-.372-.025-.521-.075-.149-.669-1.611-.916-2.206-.242-.579-.487-.5-.67-.51-.173-.007-.372-.009-.57-.009-.198 0-.52.074-.793.372s-1.04 1.016-1.04 2.479 1.065 2.876 1.213 3.074c.149.198 2.095 3.2 5.076 4.487.709.306 1.262.489 1.694.626.712.227 1.36.195 1.872.118.571-.085 1.758-.718 2.007-1.412.248-.694.248-1.289.173-1.412-.074-.124-.272-.198-.57-.347zM12.004 2C6.477 2 2 6.477 2 12.004c0 2.116.555 4.172 1.609 5.985L2 22l4.134-1.59A9.953 9.953 0 0 0 12.004 22c5.527 0 10.004-4.477 10.004-10.004S17.531 2 12.004 2z"/>
</svg>
